<svg width="16" height="16" viewBox="0 0 16 16" fill="none" xmlns="http://www.w3.org/2000/svg">
<path d="M10.5938 3.09375C10.5937 2.60624 10.4563 2.12861 10.1973 1.71563C9.93822 1.30264 9.56802 0.971021 9.12914 0.758795C8.69025 0.546569 8.20043 0.462329 7.71586 0.515734C7.23129 0.569139 6.77158 0.758028 6.38944 1.06074C6.0073 1.36345 5.71821 1.76773 5.55532 2.22722C5.39243 2.68671 5.36233 3.1828 5.46848 3.65861C5.57462 4.13442 5.81271 4.57069 6.15545 4.91738C6.49819 5.26407 6.93169 5.50715 7.40625 5.61875V14.5L8 15.5L8.59375 14.5V5.61875C9.16217 5.48348 9.66854 5.16087 10.0313 4.70285C10.3941 4.24482 10.5922 3.67804 10.5938 3.09375ZM8.75 2.90625C8.62021 2.90625 8.49333 2.86776 8.38541 2.79565C8.27749 2.72354 8.19337 2.62105 8.1437 2.50114C8.09403 2.38122 8.08104 2.24927 8.10636 2.12197C8.13168 1.99467 8.19418 1.87774 8.28596 1.78596C8.37774 1.69418 8.49467 1.63168 8.62197 1.60636C8.74927 1.58104 8.88122 1.59403 9.00114 1.6437C9.12105 1.69337 9.22354 1.77749 9.29565 1.88541C9.36776 1.99333 9.40625 2.12021 9.40625 2.25C9.40625 2.42405 9.33711 2.59097 9.21404 2.71404C9.09097 2.83711 8.92405 2.90625 8.75 2.90625Z" fill="#BE212F"/>
</svg>
