<svg width="56" height="56" viewBox="0 0 56 56" fill="none" xmlns="http://www.w3.org/2000/svg">
<path opacity="0.15" d="M18.1067 51.5433C18.1067 52.1065 19.149 52.6466 21.0044 53.0448C22.8597 53.443 25.3761 53.6667 28 53.6667C30.6239 53.6667 33.1403 53.443 34.9957 53.0448C36.851 52.6466 37.8934 52.1065 37.8934 51.5433C37.8934 50.9802 36.851 50.4401 34.9957 50.0419C33.1403 49.6437 30.6239 49.42 28 49.42C25.3761 49.42 22.8597 49.6437 21.0044 50.0419C19.149 50.4401 18.1067 50.9802 18.1067 51.5433Z" fill="#45413C"/>
<path d="M29.6334 2.91667H26.3667C24.1967 2.91667 22.4701 4.29333 22.5984 5.915L24.5001 30.7067C24.6051 32.0833 26.1334 33.1683 28.0001 33.1683C29.8667 33.1683 31.3601 32.0833 31.5001 30.7067L33.4017 5.915C33.5301 4.29333 31.8034 2.91667 29.6334 2.91667Z" fill="#FF6242"/>
<path d="M22.8201 8.72667C23.1801 8.12806 23.6957 7.63832 24.3121 7.3096C24.9284 6.98088 25.6224 6.8255 26.3201 6.86H29.5867C30.2844 6.8255 30.9784 6.98088 31.5947 7.3096C32.2111 7.63832 32.7267 8.12806 33.0867 8.72667L33.3084 5.915C33.4367 4.29333 31.7101 2.91667 29.5401 2.91667H26.3667C24.1967 2.91667 22.4701 4.29333 22.5984 5.915L22.8201 8.72667Z" fill="#FF866E"/>
<path d="M29.6334 2.91667H26.3667C24.1967 2.91667 22.4701 4.29333 22.5984 5.915L24.5001 30.7067C24.6051 32.0833 26.1334 33.1683 28.0001 33.1683C29.8667 33.1683 31.3601 32.0833 31.5001 30.7067L33.4017 5.915C33.5301 4.29333 31.8034 2.91667 29.6334 2.91667Z" stroke="#45413C" stroke-width="0.5" stroke-linecap="round" stroke-linejoin="round"/>
<path d="M23.7417 41.1133C23.7417 42.2427 24.1903 43.3258 24.9889 44.1244C25.7875 44.923 26.8707 45.3717 28 45.3717C29.1294 45.3717 30.2125 44.923 31.0111 44.1244C31.8097 43.3258 32.2584 42.2427 32.2584 41.1133C32.2584 39.984 31.8097 38.9008 31.0111 38.1022C30.2125 37.3036 29.1294 36.855 28 36.855C26.8707 36.855 25.7875 37.3036 24.9889 38.1022C24.1903 38.9008 23.7417 39.984 23.7417 41.1133Z" fill="#FF6242"/>
<path d="M28 39.585C28.8586 39.5086 29.7198 39.6996 30.4655 40.132C31.2112 40.5644 31.8049 41.2169 32.165 42C32.2251 41.7043 32.2564 41.4034 32.2584 41.1017C32.2584 39.9723 31.8097 38.8892 31.0111 38.0906C30.2125 37.292 29.1294 36.8433 28 36.8433C26.8707 36.8433 25.7875 37.292 24.9889 38.0906C24.1903 38.8892 23.7417 39.9723 23.7417 41.1017C23.7437 41.4034 23.7749 41.7043 23.835 42C24.1952 41.2169 24.7889 40.5644 25.5346 40.132C26.2802 39.6996 27.1415 39.5086 28 39.585Z" fill="#FF866E"/>
<path d="M23.7417 41.1133C23.7417 42.2427 24.1903 43.3258 24.9889 44.1244C25.7875 44.923 26.8707 45.3717 28 45.3717C29.1294 45.3717 30.2125 44.923 31.0111 44.1244C31.8097 43.3258 32.2584 42.2427 32.2584 41.1133C32.2584 39.984 31.8097 38.9008 31.0111 38.1022C30.2125 37.3036 29.1294 36.855 28 36.855C26.8707 36.855 25.7875 37.3036 24.9889 38.1022C24.1903 38.9008 23.7417 39.984 23.7417 41.1133Z" stroke="#45413C" stroke-width="0.5" stroke-linecap="round" stroke-linejoin="round"/>
</svg>
