<svg width="91" height="85" viewBox="0 0 91 85" fill="none" xmlns="http://www.w3.org/2000/svg">
<rect width="91" height="85" rx="20" fill="white"/>
<path d="M45.5 39.2917C48.1579 39.2917 50.3125 37.137 50.3125 34.4792C50.3125 31.8213 48.1579 29.6667 45.5 29.6667C42.8421 29.6667 40.6875 31.8213 40.6875 34.4792C40.6875 37.137 42.8421 39.2917 45.5 39.2917Z" fill="black"/>
<path d="M45.5 10.4167C38.737 10.4163 32.2472 13.0852 27.4411 17.8433C22.635 22.6014 19.901 29.064 19.8333 35.8267C19.8333 53.4083 42.4521 72.9792 43.4146 73.8133C43.9957 74.3104 44.7353 74.5835 45.5 74.5835C46.2647 74.5835 47.0043 74.3104 47.5854 73.8133C48.7083 72.9792 71.1667 53.4083 71.1667 35.8267C71.099 29.064 68.3651 22.6014 63.5589 17.8433C58.7528 13.0852 52.263 10.4163 45.5 10.4167ZM45.5 45.7083C43.2791 45.7083 41.108 45.0498 39.2614 43.8159C37.4148 42.582 35.9755 40.8283 35.1256 38.7764C34.2757 36.7245 34.0533 34.4667 34.4866 32.2885C34.9199 30.1102 35.9894 28.1094 37.5598 26.539C39.1302 24.9685 41.1311 23.8991 43.3093 23.4658C45.4875 23.0325 47.7454 23.2549 49.7972 24.1048C51.8491 24.9547 53.6028 26.394 54.8367 28.2406C56.0706 30.0872 56.7292 32.2583 56.7292 34.4792C56.7292 37.4573 55.5461 40.3135 53.4402 42.4194C51.3343 44.5253 48.4782 45.7083 45.5 45.7083Z" fill="#007B8A"/>
<circle cx="45" cy="36" r="17" fill="white"/>
<path d="M45 41C48.5686 41 51.4615 38.1071 51.4615 34.5385C51.4615 30.9698 48.5686 28.0769 45 28.0769C41.4314 28.0769 38.5385 30.9698 38.5385 34.5385C38.5385 38.1071 41.4314 41 45 41Z" fill="#007B8A"/>
<path d="M35.3384 53.9231C34.3482 53.9231 33.5534 53.054 33.7117 52.088C34.5985 46.7152 39.3155 42.6154 45 42.6154C50.6845 42.6154 55.4015 46.7152 56.2867 52.088C56.4466 53.054 55.6502 53.9231 54.6616 53.9231H35.3384Z" fill="#007B8A"/>
</svg>
